<svg xmlns="http://www.w3.org/2000/svg" xmlns:xlink="http://www.w3.org/1999/xlink" width="500" zoomAndPan="magnify" viewBox="0 0 375 374.999991" height="500" preserveAspectRatio="xMidYMid meet" version="1.0"><defs><clipPath id="a50943c7b3"><path d="M 166 71.046875 L 312.523438 71.046875 L 312.523438 294.546875 L 166 294.546875 Z M 166 71.046875 " clip-rule="nonzero"/></clipPath><clipPath id="e3159a1bc0"><path d="M 68.773438 123 L 251 123 L 251 294.546875 L 68.773438 294.546875 Z M 68.773438 123 " clip-rule="nonzero"/></clipPath></defs><g clip-path="url(#a50943c7b3)"><path fill="#a6a6a6" d="M 247.507812 247.214844 L 166.273438 244.710938 L 312.308594 294.488281 L 190.535156 71.101562 L 171.28125 106.421875 L 190.535156 141.984375 L 247.507812 247.214844 " fill-opacity="1" fill-rule="nonzero"/></g><g clip-path="url(#e3159a1bc0)"><path fill="#3871c1" d="M 124.714844 262.726562 L 163.378906 191.800781 L 181.058594 159.371094 L 161.792969 123.824219 L 68.761719 294.488281 L 250.777344 294.488281 L 124.714844 262.726562 " fill-opacity="1" fill-rule="nonzero"/></g><path fill="#51ade5" d="M 181.058594 159.371094 L 163.378906 191.800781 L 186.359375 234.238281 L 222.226562 235.34375 L 181.058594 159.371094 " fill-opacity="1" fill-rule="nonzero"/></svg>